<svg viewBox="0 0 60 90" width="48" height="144" fill="none" xmlns="http://www.w3.org/2000/svg">
  <!-- 상단 술 -->
  <line x1="30" y1="14" x2="22" y2="4"  stroke="#F1F5F9" stroke-width="1.5" stroke-linecap="round"/>
  <line x1="30" y1="14" x2="24" y2="2"  stroke="#F1F5F9" stroke-width="1.5" stroke-linecap="round"/>
  <line x1="30" y1="14" x2="27" y2="1"  stroke="#F1F5F9" stroke-width="1.5" stroke-linecap="round"/>
  <line x1="30" y1="14" x2="30" y2="2"  stroke="#F1F5F9" stroke-width="1.5" stroke-linecap="round"/>
  <line x1="30" y1="14" x2="33" y2="1"  stroke="#F1F5F9" stroke-width="1.5" stroke-linecap="round"/>
  <line x1="30" y1="14" x2="36" y2="2"  stroke="#F1F5F9" stroke-width="1.5" stroke-linecap="round"/>
  <line x1="30" y1="14" x2="38" y2="4"  stroke="#F1F5F9" stroke-width="1.5" stroke-linecap="round"/>
  <!-- 고리 -->
  <circle cx="30" cy="14" r="3"   fill="none"    stroke="#94A3B8" stroke-width="1.8"/>
  <circle cx="30" cy="14" r="1.5" fill="#94A3B8"/>
  <!-- 위 새끼줄 -->
  <rect x="27" y="16" width="6" height="22" rx="3" fill="#F8FAFC" stroke="#CBD5E1" stroke-width="1.2"/>
  <path d="M27 20 Q30 22 33 20" stroke="#CBD5E1" stroke-width="0.8" fill="none"/>
  <path d="M27 24 Q30 26 33 24" stroke="#CBD5E1" stroke-width="0.8" fill="none"/>
  <path d="M27 28 Q30 30 33 28" stroke="#CBD5E1" stroke-width="0.8" fill="none"/>
  <path d="M27 32 Q30 34 33 32" stroke="#CBD5E1" stroke-width="0.8" fill="none"/>
  <!-- 꼬리 -->
  <path d="M46 38 Q54 34 56 40 Q54 46 46 44 Z" fill="#38BDF8" stroke="#2D2D2D" stroke-width="1.2" stroke-linejoin="round"/>
  <!-- 몸통 -->
  <path d="M10 36 Q6 38 6 42 Q8 48 22 50 Q36 52 46 46 Q50 44 50 40 Q48 35 36 34 Q22 32 12 34 Q10 34 10 36 Z"
        fill="#BAE6FD" stroke="#2D2D2D" stroke-width="1.5" stroke-linejoin="round"/>
  <!-- 나뭇결 -->
  <path d="M16 39 Q28 37 40 40" stroke="#38BDF8" stroke-width="0.8" fill="none" opacity="0.5"/>
  <path d="M14 44 Q28 42 42 45" stroke="#38BDF8" stroke-width="0.8" fill="none" opacity="0.45"/>
  <!-- 등지느러미 -->
  <path d="M24 34 Q30 29 36 34" fill="#38BDF8" stroke="#2D2D2D" stroke-width="1" stroke-linejoin="round"/>
  <!-- 눈 -->
  <circle cx="13" cy="41"     r="2.5" fill="#2D2D2D"/>
  <circle cx="13.8" cy="40.2" r="1"   fill="white"/>
  <!-- 새끼줄 감아묶음 -->
  <path d="M30 34 Q28 40 28 48 Q30 52 32 48 Q32 40 30 34" stroke="#F8FAFC" stroke-width="6"   stroke-linecap="round" fill="none"/>
  <path d="M30 34 Q28 40 28 48 Q30 52 32 48 Q32 40 30 34" stroke="#CBD5E1" stroke-width="1.2" stroke-linecap="round" fill="none"/>
  <!-- 아래 새끼줄 -->
  <rect x="27" y="50" width="6" height="8" rx="3" fill="#F8FAFC" stroke="#CBD5E1" stroke-width="1.2"/>
  <path d="M27 54 Q30 56 33 54" stroke="#CBD5E1" stroke-width="0.8" fill="none"/>
</svg>
