<svg xmlns="http://www.w3.org/2000/svg" viewBox="0 0 100 100" width="512" height="512">
  <rect width="100" height="100" rx="20" fill="#FFF6E9"/>
  <g transform="translate(50 51) scale(0.84) translate(-45 -49)">
    <!-- 해 -->
    <circle cx="38" cy="38" r="24" fill="#FACC15" stroke="#2D2D2D" stroke-width="2.5"/>
    <circle cx="32" cy="34" r="2" fill="#2D2D2D"/>
    <circle cx="42" cy="34" r="2" fill="#2D2D2D"/>
    <path d="M33 42 Q38 46 43 42" stroke="#2D2D2D" stroke-width="1.5" fill="none" stroke-linecap="round"/>
    <ellipse cx="28" cy="40" rx="3" ry="1.5" fill="#FB923C" opacity="0.3"/>
    <ellipse cx="48" cy="40" rx="3" ry="1.5" fill="#FB923C" opacity="0.3"/>
    <!-- 달 -->
    <path d="M82 62 A20 20 0 1 1 62 36 A14 14 0 0 0 82 62Z" fill="#E84B6A" stroke="#2D2D2D" stroke-width="2.5"/>
    <circle cx="64" cy="56" r="1.5" fill="#FACC15"/>
    <circle cx="72" cy="54" r="1.5" fill="#FACC15"/>
    <path d="M64 62 Q68 65 72 62" stroke="#FACC15" stroke-width="1.2" fill="none" stroke-linecap="round"/>
  </g>
</svg>
