<svg viewBox="0 0 80 90" fill="none" xmlns="http://www.w3.org/2000/svg">
  <circle cx="40" cy="38" r="30" fill="none" stroke="#D1D5DB" stroke-width="1" stroke-dasharray="4 3" opacity="0.6"/>
  <path d="M20 30 Q18 10 40 8 Q62 10 60 30 L62 72 Q56 82 48 78 Q40 76 32 78 Q24 82 18 72 Z" fill="#E5E7EB"/>
  <ellipse cx="40" cy="36" rx="15" ry="14" fill="#F3F4F6"/>
  <circle cx="34" cy="34" r="2.5" fill="#D1D5DB"/>
  <circle cx="46" cy="34" r="2.5" fill="#D1D5DB"/>
  <path d="M35 42 Q40 45 45 42" stroke="#D1D5DB" stroke-width="1.5" fill="none" stroke-linecap="round"/>
  <path d="M28 50 Q26 54 26 72 L54 72 Q54 54 52 50 Q46 48 40 48 Q34 48 28 50Z" fill="#E5E7EB"/>
  <path d="M28 56 L16 50" stroke="#D1D5DB" stroke-width="2.5" stroke-linecap="round"/>
  <path d="M52 56 L64 50" stroke="#D1D5DB" stroke-width="2.5" stroke-linecap="round"/>
  <path d="M6 26 L7.2 29.5 L8.4 26 L7.2 22.5 Z" fill="#CBD5E1" opacity="0.8"/>
  <path d="M71 17 L72.2 20.5 L73.4 17 L72.2 13.5 Z" fill="#CBD5E1" opacity="0.7"/>
  <circle cx="14" cy="54" r="1.5" fill="#CBD5E1" opacity="0.7"/>
  <circle cx="65" cy="50" r="1.5" fill="#CBD5E1" opacity="0.7"/>
</svg>
